<svg id="svg" class="mtrace-logo" version="1.1" viewBox="0 0 300 163.6" width="300" height="163.6" fill="currentColor" xmlns="http://www.w3.org/2000/svg">
    <defs>
        <clipPath id="clip-1">
            <rect x="0" y="0" transform="scale(0.14648,0.1465)" width="2048" height="1117" fill="none"/>
        </clipPath>
    </defs>
    <g clip-path="url(#clip-1)" fill-rule="nonzero" stroke="none" stroke-width="1" stroke-linecap="butt" stroke-linejoin="miter" stroke-miterlimit="10" style="mix-blend-mode: normal">
        <path d="M260.97217,9.13999c2.24707,-0.44818 5.91064,-0.14109 7.64063,1.3823c0.61816,0.54519 2.3291,1.8173 3.11572,1.97008c3.02637,0.46876 6.2124,0.72659 9.29883,0.89821c4.42676,0.24604 2.51074,4.61528 1.21436,7.11685c-0.51855,1.00247 -1.27734,1.78696 -2.1709,2.5587c-3.14941,2.72 -7.74756,1.89053 -10.99658,4.20781c-3.83789,3.39959 -1.67871,9.55844 -1.3623,13.89268c0.45117,4.47195 -0.38232,9.55493 -3.35742,13.10175c-2.40234,2.86517 -2.77148,5.17264 -3.20361,8.89599c2.71582,0.63741 4.49707,2.08772 4.69482,4.96403c0.04834,0.70802 0.0791,1.12817 -0.26074,1.77173c-1.09424,1.08774 -13.48975,0.45238 -15.94043,0.49985c-3.40576,0.06607 -4.02686,-5.89911 -4.50586,-8.37827c-4.07812,-0.19645 -9.49951,-1.20933 -13.33008,-2.7137c-5.06836,-1.98986 -9.0791,-3.24665 -14.45947,-4.29337c-2.02295,3.66446 -3.58594,4.76567 -7.32715,6.34314l0.51123,1.87486c0.43066,0.11251 0.86865,0.2448 1.27002,0.3743c3.30762,1.06767 6.19336,7.58441 0.34717,6.87097c-1.89111,-0.23102 -4.23486,0.42704 -6.07178,-0.44828c-1.98633,-0.94666 -2.71582,-3.64703 -3.42187,-5.53419c-0.50977,-1.40314 -0.97998,-2.66711 -1.56592,-4.04696l-2.18701,0.28347c-0.20947,0.98299 -0.44678,1.73935 -0.74707,2.69568c2.1665,1.06107 3.2666,1.95895 3.65186,4.42243c0.53467,3.36605 -2.06836,2.5653 -4.02246,2.61496c-4.51904,0.11471 -7.81494,0.53002 -7.44434,-5.27328c0.09229,-1.43698 0.00586,-3.2298 0.02197,-4.68422c0.01318,-1.26089 -0.1084,-2.26615 0.19189,-3.52206c0.52148,-2.18192 2.97217,-2.54581 3.92578,-4.41906c0.50684,-1.01961 0.58008,-2.21942 0.66357,-3.33382c0.16406,-3.61069 0.7793,-5.80916 3.06445,-8.63801c-7.43262,-2.06355 -11.47559,-7.1562 -11.70703,-14.96357c-0.03369,-1.09858 0.38086,-1.98459 1.66992,-1.83662c1.4502,0.16627 0.96094,2.66609 1.12354,3.63208c0.1875,2.1283 1.04297,4.19009 2.2998,5.90644c2.21631,3.02735 5.29688,4.45847 8.92969,5.01515c5.30713,-2.95175 7.32275,-2.36006 13.22754,-2.35302l17.79785,-0.00337c6.9082,-0.00073 14.97363,1.45456 17.81689,-6.6918c-2.00244,-2.0489 -3.31494,-4.03246 -2.68359,-7.00706c0.6416,-3.03086 1.88672,-5.49317 3.72363,-7.95451c2.8667,-3.84192 6.07178,-4.64251 10.56445,-5.19827zM199.10303,67.76245c-1.26562,-2.78328 -2.65283,-0.98885 -3.80273,-2.72205c-0.29443,-1.20127 1.08105,-6.91785 2.96924,-6.98626c2.37451,-0.08585 4.42676,-0.58921 6.48193,-1.84322c1.54248,-1.04891 2.90332,-2.17781 3.89941,-3.78576c0.4248,-0.68809 0.76172,-1.42687 1.00195,-2.19891c0.20361,-0.64502 0.89355,-5.51588 3.14502,-3.1715c0.63867,0.66421 -0.55811,3.99276 -0.87158,4.99421c5.08301,0.07325 8.67041,0.54335 13.54834,2.13899c6.78662,2.21986 11.60596,4.74223 19.00781,5.08459c-0.3457,-2.15599 -0.25928,-3.25236 0.29297,-5.34462c0.33398,-1.26793 0.99023,-2.26644 2.31445,-1.39494c1.08838,0.71681 -0.24609,3.53598 -0.20068,4.52117c0.60059,3.31213 0.94189,7.4675 2.60596,10.40446c0.40869,0.59507 5.08154,0.32053 6.00879,0.29695c-2.08008,-3.38275 -4.99512,-0.26706 -3.83203,-5.5966c0.98584,-4.52498 4.12793,-7.52053 4.81055,-12.03789c0.21094,-1.43112 2.68506,-0.85481 2.50781,0.73937c-0.2124,2.26234 -1.35059,4.60995 -2.47559,6.55087c6.44531,-3.66197 9.24902,-8.59406 8.58398,-16.09628c-0.4043,-4.56526 -2.12549,-9.53413 0.38672,-13.76831c3.79688,-6.52919 10.76221,-2.45044 14.896,-8.84325c-1.42969,-0.74362 -1.84131,-0.93347 -2.33936,-2.51476c-0.03809,-0.12115 -0.07471,-0.24245 -0.11133,-0.36419c-1.60254,-0.19631 -6.13184,-0.41415 -7.25244,-0.85627c-3.57275,-1.41004 -3.22266,-3.5216 -7.93359,-3.33276c-4.06934,0.28192 -7.02246,0.61335 -9.91699,3.93237c-1.75488,2.0552 -3.5918,5.48892 -3.6416,8.20453c-0.03369,1.86812 2.7832,4.47077 4.13379,5.60246c4.99658,4.18848 7.29492,2.99556 6.33398,-3.60938c-0.44678,-3.06294 -2.4668,-5.8682 -2.85791,-8.95664c-0.11426,-0.76793 -0.01465,-1.87457 0.9917,-1.92057c1.76074,-0.08482 1.65381,2.30673 2.09766,3.52309c1.29932,3.56601 2.99561,6.90173 2.54883,10.81729c-0.89209,7.82876 -6.69727,5.53697 -10.93652,2.06721c-2.80225,5.60641 -7.08984,7.42077 -13.20557,7.38825c-3.15088,-0.0167 -6.38086,0.00483 -9.53906,0.00425l-15.16846,-0.00601c-5.93994,-0.00718 -11.13428,-0.73395 -14.58984,5.43355c-2.02002,3.60469 -0.23877,7.68432 -2.98828,10.87076c-0.9917,1.18472 -1.89111,1.65262 -2.96484,2.59767c-0.01172,1.61263 -0.20801,9.10518 0.28125,10.00335c1.15137,0.38704 4.42383,0.20158 5.78027,0.17477zM259.09424,59.0635c-1.51611,0.74552 -2.68652,1.28931 -4.2832,1.85215c-0.1875,0.80383 -0.37207,1.60882 -0.55078,2.41499c2.68945,1.41706 2.83301,1.84717 4.07227,4.43532c0.00146,0.00352 0.99756,0.00806 1.12793,0.00483c0.57715,0.00791 3.27393,0.11427 3.58887,-0.07984c-0.06445,-0.52636 -0.30762,-0.89421 -0.6958,-1.23496c-1.01367,-0.89084 -3.55225,-0.01436 -3.76318,-1.68266c-0.23584,-1.87237 0.17725,-3.85857 0.59766,-5.6508zM214.41211,54.80866c-1.34912,-0.01421 -2.86523,-0.06373 -4.19971,-0.00703c-2.34668,2.66242 -3.30615,3.4431 -6.48193,4.9608c0.59326,1.61073 2.25146,6.7192 3.38672,7.75771c1.05762,0.46703 3.92285,0.27541 5.23242,0.27732c0.21826,-0.21784 0.17578,-0.09478 0.18896,-0.3532c-1.48682,-2.20829 -3.67822,-0.91223 -4.11475,-2.07688c-1.35645,-3.61641 -2.2002,-5.98115 2.21924,-7.27545c1.48096,-0.43363 3.05127,-2.38628 3.76904,-3.28328z" />
        <path d="M265.41357,14.44571c0.80127,-0.25902 1.66113,0.17827 1.9248,0.97845c0.26221,0.80016 -0.16992,1.66229 -0.96973,1.92921c-0.8042,0.26867 -1.67285,-0.16818 -1.93799,-0.97376c-0.26514,-0.80573 0.17578,-1.67313 0.98291,-1.9339z" />
        <path d="M48.10928,83.76277c6.20273,-7.64725 18.86763,-9.00425 26.32222,-2.34467c5.28545,4.72172 4.35645,15.13966 4.34839,21.69405l-0.01802,14.50533l-9.46597,-0.00396l0.00996,-15.23898c0.00103,-3.84831 0.16802,-7.29405 -0.45762,-11.16141c-1.19268,-7.37096 -10.47671,-8.37768 -15.2001,-3.85051c-3.35581,3.21633 -3.00029,8.39702 -2.99634,12.73214l0.01128,7.54339l0.00015,9.96189l-9.44385,0.00586c-0.09932,-5.4293 0.03091,-10.81362 -0.01758,-16.38268c-0.05845,-6.73107 1.31997,-16.21948 -8.40337,-16.52713c-1.13335,-0.01377 -2.24531,0.13624 -3.33516,0.44593c-7.91968,2.25048 -6.87612,11.84305 -6.86689,18.25871l0.05713,14.22201c-3.11895,-0.00396 -6.44678,0.04717 -9.54831,-0.07222c0.29134,-12.85652 0.03281,-26.64738 0.04537,-39.59531l9.1045,0.01611l0.03457,4.55486c3.51123,-3.62432 6.4106,-4.88858 11.47397,-5.26815c1.76909,-0.0901 3.54243,0.03794 5.28032,0.38089c4.10596,0.83503 6.78516,2.6655 9.06533,6.12384z" />
        <path d="M166.7666,77.26024c0.52295,-0.01553 1.0459,-0.0252 1.56885,-0.02901c5.14746,-0.02842 10.79297,1.03412 14.5957,4.77519c5.21338,5.12898 4.27734,13.03641 4.26563,19.75254l0.00732,15.86555l-9.02344,-0.00059c0.00146,-1.53601 -0.01758,-3.07203 -0.05566,-4.6076c-3.0835,3.55678 -6.95801,4.97223 -11.57227,5.22875c-5.79932,0.32244 -12.22852,-1.00789 -15.42334,-6.34783c-2.19287,-4.45173 -2.0376,-10.09301 1.71094,-13.61668c6.1084,-5.74104 16.98633,-4.58885 24.79248,-4.56043c-0.08936,-7.30826 -4.40039,-9.38822 -11.05811,-9.23908c-4.53809,0.10167 -7.64355,1.8085 -11.34082,4.27418c-1.21729,-1.88189 -2.71875,-4.29674 -3.82471,-6.22902c4.57031,-3.55459 9.68555,-4.89254 15.35742,-5.26596zM170.49609,111.07715c3.78076,-1.04569 7.13965,-3.56367 7.12646,-7.84473c-0.00439,-1.10619 -0.00293,-2.21942 0.00293,-3.32576l-7.64355,-0.03135c-0.63428,-0.00132 -3.2666,-0.01758 -3.77197,0.08892c-2.26904,0.24128 -4.5835,0.69967 -6.09375,2.58346c-1.84424,2.29823 -1.13672,5.74778 1.16455,7.43967c2.39063,1.75664 6.43359,1.78169 9.21533,1.08979z" />
        <path d="M255.59619,77.25848c14.6499,-0.4682 22.61719,8.64504 21.44678,23.0928l-30.96094,-0.0041c0.82324,4.16299 2.72461,7.43015 6.75879,9.23688c4.22607,1.82095 9.49365,1.52532 13.52197,-0.66055c0.95068,-0.51596 2.92822,-2.40444 3.56543,-2.60822c1.03418,0.92014 4.04883,4.28604 4.99512,5.36308l-0.05859,0.07105c-7.15137,8.49049 -23.23975,8.4417 -31.45459,1.59154c-8.4126,-7.01615 -9.11426,-21.17545 -2.13135,-29.39331c3.75439,-4.4176 8.70117,-6.25818 14.31738,-6.68917zM246.12891,94.09662l13.18506,0.00264c2.84766,0.00088 5.94287,0.06373 8.77002,-0.01597c-1.31543,-7.42634 -5.60742,-10.14399 -12.84082,-9.65528c-5.06543,0.98665 -8.4082,4.53611 -9.11426,9.66861z" />
        <path d="M213.29004,77.25746c8.18848,-0.39393 14.17236,1.56048 18.87891,8.43584c-2.25439,1.37077 -4.74023,3.08858 -6.96826,4.55296c-0.94043,-1.42702 -1.98193,-2.73611 -3.39697,-3.67339c-5.00244,-3.40311 -12.9375,-2.38848 -16.19092,3.03672c-5.64111,9.40433 0.02197,23.21395 12.33252,20.78211c3.28418,-0.64883 5.30859,-2.41587 7.06494,-5.10613l0.1377,-0.14913c0.60352,-0.06182 6.0791,3.63443 7.00049,4.22862c-0.49219,0.90081 -1.0708,1.75224 -1.72705,2.5423c-6.91553,8.37637 -21.78076,8.16307 -29.75098,1.4865c-8.31152,-6.96048 -9.01172,-21.22922 -2.05518,-29.35141c3.88477,-4.53596 8.89014,-6.30916 14.6748,-6.78498z" />
        <path d="M91.53193,66.51064c3.0791,-0.0753 6.59092,-0.0479 9.67002,0.00234l0.00439,11.44077l12.03047,0.00601l-0.01099,6.9051c-3.5146,0.21535 -8.34521,0.0063 -12.02036,0.04307c-0.1084,6.30081 0.05229,12.65831 -0.03838,18.96746c-0.10928,7.61151 6.14736,8.12483 11.64756,5.08782c0.4897,1.23745 0.96387,2.63503 1.42266,3.89636c0.38701,0.9367 0.67896,1.86973 0.9936,2.83207c-7.41533,4.85855 -21.84521,3.37161 -23.33408,-7.03988c-0.47695,-3.33572 -0.375,-6.30418 -0.37603,-9.65586l-0.00366,-14.12049c-2.47793,-0.02754 -4.90957,0.04937 -7.40566,-0.01978c-0.04072,-2.26234 -0.01333,-4.6016 -0.01582,-6.87024c2.37891,-0.07852 5.03276,-0.02153 7.43203,-0.01948z" />
        <path d="M142.49604,77.4126c1.03931,-0.07969 2.70059,0.05406 3.78955,0.11119c-0.04365,2.76922 -0.12612,5.53756 -0.24741,8.30444c-4.00093,-0.51904 -8.29058,-0.37151 -11.31548,2.66535c-4.36143,4.37863 -3.50376,11.62565 -3.49863,17.29081c0.0189,3.94119 0.01392,7.88253 -0.01494,11.82372c-2.3584,0.01275 -7.47832,0.18283 -9.6208,-0.03633c-0.22456,-0.4263 -0.1626,-0.8967 -0.15967,-1.39714l0.01553,-38.20243c2.95693,-0.0753 6.10693,-0.01978 9.07808,-0.01699c-0.01069,2.04055 -0.01787,3.96331 0.06606,6.00254c0.27422,-0.34192 0.5521,-0.68091 0.83379,-1.01683c2.99136,-3.55517 6.49805,-5.13367 11.07393,-5.52833z" />
    </g>
</svg>