<svg class="mtrace-logo" viewBox="190 5 95 78" width="65" height="45" fill="#bf2c0c" xmlns="http://www.w3.org/2000/svg"><path d="M260.972 9.14c2.247-.448 5.91-.141 7.64 1.382.619.545 2.33 1.818 3.117 1.97 3.026.47 6.212.727 9.298.899 4.427.246 2.511 4.615 1.215 7.116-.519 1.003-1.278 1.787-2.171 2.56-3.15 2.72-7.748 1.89-10.997 4.207-3.838 3.4-1.678 9.558-1.362 13.893.451 4.472-.382 9.555-3.357 13.101-2.403 2.866-2.772 5.173-3.204 8.896 2.716.638 4.497 2.088 4.695 4.964.048.708.079 1.129-.261 1.772-1.094 1.088-13.49.452-15.94.5-3.406.066-4.027-5.9-4.506-8.378-4.078-.197-9.5-1.21-13.33-2.714-5.069-1.99-9.08-3.247-14.46-4.293-2.023 3.664-3.586 4.765-7.327 6.343l.511 1.875c.43.112.869.244 1.27.374 3.308 1.068 6.194 7.584.347 6.87-1.89-.23-4.234.428-6.071-.447-1.987-.947-2.716-3.647-3.422-5.535-.51-1.403-.98-2.667-1.566-4.047l-2.187.284c-.21.983-.447 1.74-.747 2.696 2.166 1.06 3.266 1.959 3.652 4.422.534 3.366-2.069 2.565-4.023 2.615-4.519.115-7.815.53-7.444-5.273.092-1.437.006-3.23.022-4.684.013-1.261-.109-2.267.192-3.523.521-2.181 2.972-2.545 3.925-4.419.507-1.02.58-2.219.664-3.333.164-3.611.78-5.81 3.064-8.638-7.432-2.064-11.475-7.157-11.707-14.964-.033-1.099.381-1.985 1.67-1.837 1.45.167.961 2.666 1.124 3.632.187 2.129 1.043 4.19 2.3 5.907 2.216 3.027 5.297 4.458 8.93 5.015 5.307-2.952 7.322-2.36 13.227-2.353l17.798-.003c6.908-.001 14.973 1.454 17.817-6.692-2.003-2.05-3.315-4.033-2.684-7.007.642-3.031 1.887-5.493 3.724-7.955 2.866-3.842 6.071-4.642 10.564-5.198m-61.869 58.622c-1.266-2.783-2.653-.988-3.803-2.722-.294-1.2 1.081-6.917 2.97-6.986 2.374-.086 4.426-.59 6.481-1.843 1.543-1.049 2.904-2.178 3.9-3.786a9.6 9.6 0 0 0 1.002-2.199c.203-.645.893-5.516 3.145-3.171.639.664-.558 3.993-.872 4.994 5.083.073 8.67.543 13.549 2.139 6.786 2.22 11.606 4.742 19.007 5.085-.345-2.156-.259-3.253.293-5.345.334-1.268.99-2.267 2.315-1.395 1.088.717-.246 3.536-.2 4.521.6 3.312.941 7.468 2.605 10.405.409.595 5.082.32 6.009.297-2.08-3.383-4.995-.267-3.832-5.597.986-4.525 4.128-7.52 4.81-12.038.211-1.431 2.685-.855 2.508.74-.212 2.262-1.35 4.61-2.475 6.55 6.445-3.662 9.249-8.594 8.584-16.096-.405-4.565-2.126-9.534.386-13.768 3.797-6.53 10.763-2.45 14.896-8.844-1.43-.743-1.841-.933-2.339-2.514l-.111-.364c-1.603-.197-6.132-.415-7.253-.857-3.573-1.41-3.222-3.521-7.933-3.333-4.07.282-7.023.614-9.917 3.933-1.755 2.055-3.592 5.489-3.642 8.204-.034 1.869 2.783 4.471 4.134 5.603 4.996 4.188 7.295 2.995 6.334-3.61-.447-3.062-2.467-5.868-2.858-8.956-.114-.768-.015-1.875.992-1.92 1.76-.086 1.653 2.306 2.097 3.522 1.3 3.566 2.996 6.902 2.55 10.818-.893 7.828-6.698 5.537-10.937 2.067-2.803 5.606-7.09 7.42-13.206 7.388-3.15-.017-6.38.005-9.54.004l-15.168-.006c-5.94-.007-11.134-.734-14.59 5.434-2.02 3.605-.238 7.684-2.988 10.87-.991 1.185-1.89 1.653-2.964 2.598-.012 1.613-.208 9.105.28 10.004 1.152.387 4.425.201 5.781.174m59.991-8.699c-1.516.746-2.686 1.29-4.283 1.853q-.282 1.204-.55 2.415c2.689 1.417 2.832 1.847 4.072 4.435.001.003.997.008 1.127.005.578.008 3.274.114 3.59-.08-.065-.526-.308-.894-.696-1.235-1.014-.89-3.553-.014-3.764-1.683-.235-1.872.178-3.858.598-5.65zm-44.682-4.254c-1.349-.015-2.865-.064-4.2-.007-2.346 2.662-3.306 3.443-6.482 4.96.594 1.611 2.252 6.72 3.387 7.758 1.058.467 3.923.276 5.233.277.218-.217.175-.094.189-.353-1.487-2.208-3.679-.912-4.115-2.077-1.357-3.616-2.2-5.98 2.22-7.275 1.48-.434 3.05-2.386 3.768-3.283"/></svg>